<?xml version="1.0" standalone="no"?>
<!DOCTYPE svg PUBLIC "-//W3C//DTD SVG 20010904//EN"
        "http://www.w3.org/TR/2001/REC-SVG-20010904/DTD/svg10.dtd">
<svg version="1.0" xmlns="http://www.w3.org/2000/svg"
     width="300.000000pt" height="300.000000pt" viewBox="0 0 300.000000 300.000000"
     preserveAspectRatio="xMidYMid meet">
    <metadata>
        Created by potrace 1.10, written by Peter Selinger 2001-2011
    </metadata>
    <g transform="translate(0.000000,300.000000) scale(0.050000,-0.050000)"
       fill="#073763" stroke="none">
        <path d="M2515 4707 c14 -6 25 -19 25 -29 0 -12 -13 -12 -36 0 -21 11 -48 12
-64 2 -16 -10 -44 -9 -66 3 -28 15 -35 15 -25 -1 7 -12 0 -22 -18 -22 -52 0
-60 -2 -90 -27 -23 -18 -25 -17 -12 4 13 22 8 23 -24 6 -22 -12 -45 -16 -52
-9 -7 7 -13 1 -13 -12 0 -14 -11 -22 -25 -17 -13 4 -37 -4 -51 -19 -15 -14
-35 -22 -44 -16 -8 5 -21 -4 -28 -21 -6 -18 -20 -27 -30 -20 -10 6 -23 -4 -30
-21 -7 -19 -25 -27 -43 -20 -18 6 -26 3 -19 -8 7 -11 -11 -30 -39 -43 -28 -13
-51 -31 -51 -40 0 -9 -14 -17 -31 -17 -17 0 -26 -8 -20 -18 6 -9 -3 -29 -19
-42 -17 -14 -30 -37 -30 -51 0 -15 -19 -32 -42 -39 -22 -8 -36 -19 -29 -25 6
-7 -4 -28 -22 -48 -18 -21 -25 -37 -15 -37 10 0 6 -8 -8 -17 -14 -9 -30 -38
-35 -65 -24 -128 -30 -146 -54 -161 -20 -13 -20 -16 1 -17 15 0 20 -10 12 -23
-22 -36 -22 -902 0 -940 14 -24 11 -44 -9 -69 -18 -22 -20 -30 -4 -21 16 10
25 4 25 -16 0 -17 -9 -31 -20 -31 -11 0 -20 -10 -20 -21 0 -12 9 -16 20 -9 11
7 20 -10 20 -40 0 -36 -8 -48 -25 -38 -20 11 -20 8 0 -13 17 -19 25 -107 25
-288 1 -166 12 -305 31 -381 16 -66 33 -131 36 -144 3 -13 22 -43 42 -65 21
-23 31 -41 24 -41 -26 0 60 -85 157 -156 55 -40 105 -77 110 -83 11 -12 39
-20 120 -34 28 -4 64 -13 80 -20 43 -17 149 -16 177 1 12 8 23 6 23 -4 0 -10
50 -11 119 -1 217 30 294 146 281 424 -3 59 3 74 23 62 22 -12 22 -10 2 12
-14 15 -25 56 -25 91 0 36 11 69 25 75 20 8 20 10 0 11 -14 1 -25 16 -25 33 0
19 9 26 23 17 13 -8 18 -5 10 7 -7 11 1 32 18 45 32 28 109 -38 109 -93 0 -15
13 -27 30 -27 16 0 28 -7 25 -15 -2 -8 20 -41 50 -73 30 -31 49 -66 42 -78 -8
-12 -3 -14 10 -6 13 8 29 -1 37 -22 8 -20 35 -53 61 -73 26 -21 43 -42 38 -46
-5 -5 11 -30 34 -56 24 -25 61 -67 83 -94 63 -74 213 -177 261 -177 23 0 49
-6 57 -14 18 -18 912 -23 912 -5 0 7 31 29 69 50 96 51 153 241 86 282 -8 5
-10 20 -2 31 7 13 4 16 -8 9 -12 -8 -28 5 -35 27 -7 22 -21 40 -31 40 -11 0
-19 13 -19 29 0 16 -36 67 -79 113 -44 46 -74 93 -67 104 7 11 3 15 -8 8 -20
-13 -119 104 -111 130 3 8 -9 9 -25 3 -23 -8 -27 -2 -17 24 10 24 6 31 -10 21
-12 -8 -23 -6 -23 4 0 9 -40 57 -90 106 -49 48 -90 99 -90 113 0 14 -11 25
-25 25 -14 0 -56 32 -93 70 -37 39 -75 70 -83 70 -9 0 -22 18 -29 40 -7 22
-20 36 -29 31 -9 -6 -16 12 -16 39 0 27 7 45 16 39 9 -5 29 4 46 21 17 16 40
30 52 30 11 0 21 11 21 23 0 13 5 19 11 13 23 -23 275 219 322 310 16 30 37
50 48 43 10 -6 19 12 19 41 0 34 8 47 23 38 13 -8 18 -5 11 5 -7 11 15 72 49
136 33 64 51 110 39 102 -12 -7 -22 -6 -22 4 0 30 49 125 65 125 9 0 10 23 3
50 -8 33 -4 50 12 50 13 0 19 13 13 30 -6 16 3 68 20 115 17 47 35 117 40 155
5 39 15 84 21 100 18 45 18 198 1 187 -8 -5 -15 4 -15 19 0 39 -156 194 -167
166 -5 -15 -17 -13 -35 6 -24 24 -23 25 2 12 17 -9 23 -9 15 1 -21 22 -155 25
-155 3 0 -9 -10 -10 -21 -3 -31 19 -119 26 -109 8 6 -8 -3 -20 -19 -26 -17 -6
-35 -3 -42 8 -7 12 -27 11 -52 -2 -22 -12 -55 -16 -73 -9 -18 6 -26 6 -18 -2
8 -9 -46 -45 -121 -81 -74 -36 -126 -66 -115 -67 11 -1 -15 -18 -59 -39 -80
-38 -133 -35 -125 6 2 13 -6 21 -19 19 -12 -3 -44 15 -71 40 -26 24 -63 41
-82 38 -19 -4 -34 1 -34 10 0 9 -38 14 -85 10 -63 -5 -77 -1 -55 14 22 16 11
19 -44 12 -46 -6 -84 1 -100 17 -15 14 -36 23 -49 19 -12 -4 -36 6 -52 22 -17
17 -36 25 -43 18 -6 -7 -12 -2 -12 12 0 13 -8 19 -18 13 -9 -6 -28 2 -41 18
-17 21 -37 24 -70 11 -51 -19 -131 -6 -131 22 0 10 -16 17 -35 16 -21 -1 -25
-5 -10 -11z m297 -229 c131 -66 193 -84 302 -91 190 -13 222 -22 247 -70 29
-52 -7 -195 -64 -256 -22 -23 -49 -69 -60 -102 -12 -33 -47 -73 -78 -90 -77
-39 -81 -37 -58 24 51 135 -87 177 -359 108 -87 -23 -204 -41 -258 -41 l-100
0 63 -66 c35 -36 95 -110 133 -163 106 -148 160 -179 326 -191 132 -9 145 -14
151 -57 13 -94 -144 -188 -208 -124 -17 17 -233 81 -273 81 -9 0 -16 -87 -16
-193 l0 -192 156 9 c363 21 519 182 643 663 133 517 410 753 882 753 243 0
253 -37 129 -507 -237 -902 -512 -1133 -1344 -1133 -321 0 -329 -1 -377 -49
-97 -97 -51 -226 48 -134 35 32 63 55 63 50 0 -4 19 2 41 14 31 16 49 16 70
-2 16 -13 29 -15 29 -4 0 20 83 18 117 -3 11 -7 25 -5 31 4 6 10 31 16 56 13
25 -2 56 5 69 14 12 10 30 16 40 13 9 -2 36 6 58 18 79 45 280 -27 475 -169
148 -107 814 -901 814 -969 0 -88 -42 -96 -534 -96 -590 0 -439 -104 -1255
869 l-201 240 -5 -524 -6 -525 -50 -32 c-74 -49 -401 -30 -541 30 -126 55
-252 181 -308 307 -58 132 -65 1878 -9 2047 153 456 754 728 1161 526z m192
-691 c135 -45 166 -49 240 -31 102 26 107 24 54 -33 -32 -35 -36 -51 -19 -72
74 -89 -151 -54 -320 50 -90 55 -152 79 -204 79 -77 0 -103 30 -40 46 77 20
141 12 289 -39z"/>
        <path d="M2465 4467 c-45 -18 71 -187 129 -187 35 0 126 97 126 133 0 42 -36
32 -50 -14 -20 -61 -80 -41 -79 27 1 54 -51 71 -126 41z"/>
        <path d="M2024 3460 c-188 -115 -477 -559 -329 -506 57 20 105 70 91 94 -7 12
-5 15 4 7 22 -20 70 22 70 62 0 34 145 183 178 183 10 0 22 12 28 27 8 21 54
26 192 23 100 -2 182 3 182 11 0 9 18 22 40 29 78 25 39 50 -77 50 -82 0 -313
44 -313 60 0 0 -30 -18 -66 -40z"/>
    </g>
</svg>
