<?xml version="1.0" encoding="utf-8"?>
<!-- Generator: Adobe Illustrator 25.4.1, SVG Export Plug-In . SVG Version: 6.00 Build 0)  -->
<svg version="1.1" id="Layer_1" xmlns="http://www.w3.org/2000/svg" xmlns:xlink="http://www.w3.org/1999/xlink" x="0px" y="0px"
	 viewBox="0 0 300 300" style="enable-background:new 0 0 300 300;" xml:space="preserve">
<style type="text/css">
	.st0{fill:#E0F2FC;}
	.st1{fill:#073763;}
</style>
<path class="st0" d="M61.9,267.3h183.5c15.9,0,28.8-12.9,28.8-28.8V55.1c0-15.9-12.9-28.8-28.8-28.8H61.9
	c-15.9,0-28.8,12.9-28.8,28.8v183.5C33.1,254.4,46,267.3,61.9,267.3z"/>
<g transform="translate(0.000000,300.000000) scale(0.050000,-0.050000)">
	<path class="st1" d="M2515,4707c14-6,25-19,25-29c0-12-13-12-36,0c-21,11-48,12-64,2s-44-9-66,3c-28,15-35,15-25-1c7-12,0-22-18-22
		c-52,0-60-2-90-27c-23-18-25-17-12,4c13,22,8,23-24,6c-22-12-45-16-52-9s-13,1-13-12c0-14-11-22-25-17c-13,4-37-4-51-19
		c-15-14-35-22-44-16c-8,5-21-4-28-21c-6-18-20-27-30-20c-10,6-23-4-30-21c-7-19-25-27-43-20c-18,6-26,3-19-8s-11-30-39-43
		s-51-31-51-40s-14-17-31-17s-26-8-20-18c6-9-3-29-19-42c-17-14-30-37-30-51c0-15-19-32-42-39c-22-8-36-19-29-25c6-7-4-28-22-48
		c-18-21-25-37-15-37s6-8-8-17s-30-38-35-65c-24-128-30-146-54-161c-20-13-20-16,1-17c15,0,20-10,12-23c-22-36-22-902,0-940
		c14-24,11-44-9-69c-18-22-20-30-4-21c16,10,25,4,25-16c0-17-9-31-20-31s-20-10-20-21c0-12,9-16,20-9s20-10,20-40c0-36-8-48-25-38
		c-20,11-20,8,0-13c17-19,25-107,25-288c1-166,12-305,31-381c16-66,33-131,36-144s22-43,42-65c21-23,31-41,24-41
		c-26,0,60-85,157-156c55-40,105-77,110-83c11-12,39-20,120-34c28-4,64-13,80-20c43-17,149-16,177,1c12,8,23,6,23-4s50-11,119-1
		c217,30,294,146,281,424c-3,59,3,74,23,62c22-12,22-10,2,12c-14,15-25,56-25,91c0,36,11,69,25,75c20,8,20,10,0,11
		c-14,1-25,16-25,33c0,19,9,26,23,17c13-8,18-5,10,7c-7,11,1,32,18,45c32,28,109-38,109-93c0-15,13-27,30-27c16,0,28-7,25-15
		c-2-8,20-41,50-73c30-31,49-66,42-78c-8-12-3-14,10-6s29-1,37-22c8-20,35-53,61-73c26-21,43-42,38-46c-5-5,11-30,34-56
		c24-25,61-67,83-94c63-74,213-177,261-177c23,0,49-6,57-14c18-18,912-23,912-5c0,7,31,29,69,50c96,51,153,241,86,282
		c-8,5-10,20-2,31c7,13,4,16-8,9c-12-8-28,5-35,27s-21,40-31,40c-11,0-19,13-19,29s-36,67-79,113c-44,46-74,93-67,104s3,15-8,8
		c-20-13-119,104-111,130c3,8-9,9-25,3c-23-8-27-2-17,24c10,24,6,31-10,21c-12-8-23-6-23,4c0,9-40,57-90,106c-49,48-90,99-90,113
		s-11,25-25,25s-56,32-93,70c-37,39-75,70-83,70c-9,0-22,18-29,40s-20,36-29,31c-9-6-16,12-16,39s7,45,16,39c9-5,29,4,46,21
		c17,16,40,30,52,30c11,0,21,11,21,23c0,13,5,19,11,13c23-23,275,219,322,310c16,30,37,50,48,43c10-6,19,12,19,41c0,34,8,47,23,38
		c13-8,18-5,11,5c-7,11,15,72,49,136c33,64,51,110,39,102c-12-7-22-6-22,4c0,30,49,125,65,125c9,0,10,23,3,50c-8,33-4,50,12,50
		c13,0,19,13,13,30c-6,16,3,68,20,115s35,117,40,155c5,39,15,84,21,100c18,45,18,198,1,187c-8-5-15,4-15,19c0,39-156,194-167,166
		c-5-15-17-13-35,6c-24,24-23,25,2,12c17-9,23-9,15,1c-21,22-155,25-155,3c0-9-10-10-21-3c-31,19-119,26-109,8c6-8-3-20-19-26
		c-17-6-35-3-42,8c-7,12-27,11-52-2c-22-12-55-16-73-9c-18,6-26,6-18-2c8-9-46-45-121-81c-74-36-126-66-115-67s-15-18-59-39
		c-80-38-133-35-125,6c2,13-6,21-19,19c-12-3-44,15-71,40c-26,24-63,41-82,38c-19-4-34,1-34,10s-38,14-85,10c-63-5-77-1-55,14
		c22,16,11,19-44,12c-46-6-84,1-100,17c-15,14-36,23-49,19c-12-4-36,6-52,22c-17,17-36,25-43,18c-6-7-12-2-12,12c0,13-8,19-18,13
		c-9-6-28,2-41,18c-17,21-37,24-70,11c-51-19-131-6-131,22c0,10-16,17-35,16C2504,4717,2500,4713,2515,4707z M2812,4478
		c131-66,193-84,302-91c190-13,222-22,247-70c29-52-7-195-64-256c-22-23-49-69-60-102c-12-33-47-73-78-90c-77-39-81-37-58,24
		c51,135-87,177-359,108c-87-23-204-41-258-41h-100l63-66c35-36,95-110,133-163c106-148,160-179,326-191c132-9,145-14,151-57
		c13-94-144-188-208-124c-17,17-233,81-273,81c-9,0-16-87-16-193v-192l156,9c363,21,519,182,643,663c133,517,410,753,882,753
		c243,0,253-37,129-507c-237-902-512-1133-1344-1133c-321,0-329-1-377-49c-97-97-51-226,48-134c35,32,63,55,63,50c0-4,19,2,41,14
		c31,16,49,16,70-2c16-13,29-15,29-4c0,20,83,18,117-3c11-7,25-5,31,4c6,10,31,16,56,13c25-2,56,5,69,14c12,10,30,16,40,13
		c9-2,36,6,58,18c79,45,280-27,475-169c148-107,814-901,814-969c0-88-42-96-534-96c-590,0-439-104-1255,869l-201,240l-5-524l-6-525
		l-50-32c-74-49-401-30-541,30c-126,55-252,181-308,307c-58,132-65,1878-9,2047C1804,4408,2405,4680,2812,4478z M3004,3787
		c135-45,166-49,240-31c102,26,107,24,54-33c-32-35-36-51-19-72c74-89-151-54-320,50c-90,55-152,79-204,79c-77,0-103,30-40,46
		C2792,3846,2856,3838,3004,3787z"/>
	<path class="st1" d="M2465,4467c-45-18,71-187,129-187c35,0,126,97,126,133c0,42-36,32-50-14c-20-61-80-41-79,27
		C2592,4480,2540,4497,2465,4467z"/>
	<path class="st1" d="M2024,3460c-188-115-477-559-329-506c57,20,105,70,91,94c-7,12-5,15,4,7c22-20,70,22,70,62
		c0,34,145,183,178,183c10,0,22,12,28,27c8,21,54,26,192,23c100-2,182,3,182,11c0,9,18,22,40,29c78,25,39,50-77,50
		c-82,0-313,44-313,60C2090,3500,2060,3482,2024,3460z"/>
</g>
</svg>
